<?xml version="1.0" standalone="no"?>
<!DOCTYPE svg PUBLIC "-//W3C//DTD SVG 20010904//EN"
 "http://www.w3.org/TR/2001/REC-SVG-20010904/DTD/svg10.dtd">
<svg version="1.0" xmlns="http://www.w3.org/2000/svg"
 width="256.000000pt" height="256.000000pt" viewBox="0 0 256.000000 256.000000"
 preserveAspectRatio="xMidYMid meet">
<metadata>
Created by potrace 1.14, written by Peter Selinger 2001-2017
</metadata>
<g transform="translate(0.000000,256.000000) scale(0.100000,-0.100000)"
fill="#000000" stroke="none">
<path d="M1940 2273 c-8 -3 -51 -19 -96 -35 -93 -33 -91 -30 -125 -170 l-23
-98 -262 0 c-148 0 -274 -4 -289 -10 -55 -21 -51 -105 6 -117 25 -5 29 -10 35
-62 4 -31 8 -74 8 -96 l1 -40 -205 -5 c-180 -5 -212 -8 -260 -28 -153 -60
-244 -166 -257 -299 -4 -40 -10 -54 -24 -58 -29 -9 -78 -54 -94 -86 -21 -40
-19 -108 5 -146 19 -32 19 -33 0 -75 -25 -56 -26 -149 -1 -203 23 -51 80 -101
129 -114 35 -10 40 -15 56 -66 23 -75 70 -132 136 -167 l55 -28 583 0 c519 0
587 1 618 16 35 17 80 63 95 99 6 14 149 1306 149 1347 0 3 13 8 29 11 55 11
59 97 6 117 -15 6 -107 10 -206 10 l-181 0 7 33 c22 108 18 103 106 132 114
38 140 70 103 123 -11 16 -25 22 -52 21 -20 0 -44 -3 -52 -6z m107 -490 c-4
-32 -34 -321 -67 -643 -33 -322 -65 -595 -70 -608 -5 -12 -21 -27 -36 -32 -28
-11 -294 -14 -294 -4 0 4 10 33 21 65 20 55 25 60 63 70 116 31 178 200 119
324 -15 31 -14 36 6 77 26 54 26 81 2 134 -17 38 -54 73 -92 87 -11 3 -19 23
-23 54 -17 117 -100 227 -211 282 -36 18 -80 35 -99 38 l-34 5 -11 87 c-6 48
-11 95 -11 104 0 16 30 17 371 17 l372 0 -6 -57z m-673 -293 c74 -28 146 -98
164 -156 24 -81 69 -74 -469 -74 -453 0 -480 1 -475 18 2 9 7 31 11 49 9 47
58 108 109 138 77 45 148 55 386 52 198 -3 220 -5 274 -27z m301 -390 l0 -25
-362 -5 -362 -5 -51 -50 -50 -49 -50 49 -51 50 -137 5 -137 5 -3 28 -3 27 603
-2 603 -3 0 -25z m-931 -209 c88 -89 124 -89 212 0 l48 49 318 0 318 0 20 -32
c11 -18 20 -46 20 -61 0 -35 -24 -83 -45 -91 -9 -3 -265 -6 -569 -6 -530 0
-554 1 -570 19 -37 41 -37 131 0 158 11 8 51 13 109 13 l91 0 48 -49z m739
-291 c-3 -10 -19 -35 -37 -55 -30 -35 -35 -37 -121 -47 -49 -5 -196 -8 -325
-6 -200 3 -240 6 -267 20 -30 17 -73 73 -73 97 0 8 113 11 414 11 406 0 414 0
409 -20z"/>
</g>
</svg>
